<?xml version="1.0" encoding="UTF-8" standalone="no"?><!DOCTYPE svg PUBLIC "-//W3C//DTD SVG 1.1//EN" "http://www.w3.org/Graphics/SVG/1.1/DTD/svg11.dtd"><svg width="100%" height="100%" viewBox="0 0 534 534" version="1.1" xmlns="http://www.w3.org/2000/svg" xmlns:xlink="http://www.w3.org/1999/xlink" xml:space="preserve" xmlns:serif="http://www.serif.com/" style="fill-rule:evenodd;clip-rule:evenodd;stroke-linejoin:round;stroke-miterlimit:2;"><path d="M419.351,79.078c-4.587,-16.751 -0.306,-35.427 12.84,-48.573c7.963,-7.963 17.955,-12.673 28.316,-14.13l-10.945,26.424l12.001,28.972l28.972,12l26.423,-10.945c-1.456,10.362 -6.166,20.354 -14.129,28.316c-13.203,13.203 -31.983,17.464 -48.784,12.782c-120.777,105.792 -234.151,218.964 -339.488,340.155c4.448,16.67 0.14,35.195 -12.924,48.26c-19.494,19.493 -51.145,19.493 -70.638,-0c-19.493,-19.493 -19.493,-51.145 -0,-70.638c13.025,-13.025 31.479,-17.347 48.108,-12.965c120.165,-106.475 233.459,-219.817 340.248,-339.658Zm-371.363,369.617l25.033,-6.708l18.325,18.325l-6.707,25.033l-25.033,6.707l-18.325,-18.325l6.707,-25.032Z"/><path d="M113.982,79.078c4.587,-16.751 0.307,-35.427 -12.84,-48.573c-7.962,-7.963 -17.954,-12.673 -28.316,-14.13l10.945,26.424l-12,28.972l-28.972,12l-26.424,-10.945c1.457,10.362 6.167,20.354 14.13,28.316c13.202,13.203 31.983,17.464 48.784,12.782c120.776,105.792 234.151,218.964 339.487,340.155c-4.448,16.67 -0.139,35.195 12.925,48.26c19.493,19.493 51.145,19.493 70.638,-0c19.493,-19.493 19.493,-51.145 -0,-70.638c-13.026,-13.025 -31.48,-17.347 -48.109,-12.965c-120.165,-106.475 -233.458,-219.817 -340.248,-339.658Zm371.363,369.617l-25.033,-6.708l-18.325,18.325l6.708,25.033l25.032,6.707l18.325,-18.325l-6.707,-25.032Z"/></svg>