<?xml version="1.0" encoding="UTF-8" standalone="no"?><!DOCTYPE svg PUBLIC "-//W3C//DTD SVG 1.1//EN" "http://www.w3.org/Graphics/SVG/1.1/DTD/svg11.dtd"><svg width="100%" height="100%" viewBox="0 0 534 534" version="1.1" xmlns="http://www.w3.org/2000/svg" xmlns:xlink="http://www.w3.org/1999/xlink" xml:space="preserve" xmlns:serif="http://www.serif.com/" style="fill-rule:evenodd;clip-rule:evenodd;stroke-linejoin:round;stroke-miterlimit:2;"><rect id="Artboard1" x="0" y="0" width="533.333" height="533.333" style="fill:none;"/><path d="M335.595,83.41c-70.683,6.582 -135.125,-10.131 -192.908,-51.69l-74.084,276.482c57.841,41.347 122.169,58.483 192.909,51.689l74.083,-276.481Zm-74.047,276.349c70.683,-6.582 135.124,10.131 192.908,51.689l74.083,-276.481c-57.84,-41.348 -122.168,-58.483 -192.908,-51.69l-74.083,276.482Z"/><path d="M154.332,26.478c1.414,-5.277 -1.718,-10.701 -6.995,-12.115c0,0 0,0 0,0c-5.277,-1.414 -10.701,1.718 -12.115,6.995c-16.973,63.345 -113.115,422.152 -130.088,485.497c-1.414,5.277 1.717,10.701 6.994,12.115c0,-0 0,-0 0.001,0c5.276,1.414 10.7,-1.718 12.114,-6.994c16.974,-63.346 113.116,-422.153 130.089,-485.498Z"/></svg>